PathFileType	4	(X/Y/Z)	SUBJ89_3_walk_RCNL2025.trc
DataRate	CameraRate	NumFrames	NumMarkers	Units	OrigDataRate	OrigDataStartFrame	OrigNumFrames
100	100	12	25	mm	100	1	227
Frame#	Time	R_Shoulder			L_Shoulder			C7			J_Notch			R_Elbow			L_Elbow			R_Wrist			L_Wrist			R_Asis			L_Asis			Sacral			Thoracic			Sternum			R_Thigh_Lateral			R_Knee_Lateral			R_Shank_Lateral			R_Ankle_Lateral			R_Heel			R_Toe			L_Thigh_Lateral			L_Knee_Lateral			L_Shank_Lateral			L_Ankle_Lateral			L_Heel			L_Toe		
		X1	Y1	Z1	X2	Y2	Z2	X3	Y3	Z3	X4	Y4	Z4	X5	Y5	Z5	X6	Y6	Z6	X7	Y7	Z7	X8	Y8	Z8	X9	Y9	Z9	X10	Y10	Z10	X11	Y11	Z11	X12	Y12	Z12	X13	Y13	Z13	X14	Y14	Z14	X15	Y15	Z15	X16	Y16	Z16	X17	Y17	Z17	X18	Y18	Z18	X19	Y19	Z19	X20	Y20	Z20	X21	Y21	Z21	X22	Y22	Z22	X23	Y23	Z23	X24	Y24	Z24	X25	Y25	Z25
1	0.00000000	-1099.018188	1377.737549	-43.084351	-1101.170654	1400.061157	-455.761780	-1157.936646	1481.113647	-247.140976	-1047.144653	1351.521851	-248.899948	-1235.200562	1069.299438	-5.324049	-1067.400269	1064.088501	-519.500732	-1203.624329	801.739197	17.383723	-893.579407	870.640533	-450.694031	-1059.200684	962.169617	-142.335724	-1053.046143	956.358582	-381.176971	-1225.444092	1016.096069	-251.299149	-1248.202393	1304.199951	-253.890656	-1014.773376	1204.280273	-262.428040	-997.737366	600.283264	-69.978004	-949.571472	497.267365	-123.948196	-924.445190	275.427551	-79.903343	-881.815002	71.869469	-145.682510	-912.004028	56.773273	-194.528854	-723.380188	63.183819	-162.849075	-1181.321777	536.451599	-458.233612	-1222.232910	457.083984	-382.839600	-1379.949951	281.069061	-430.172180	-1503.110107	124.457840	-362.095428	-1535.078735	151.287109	-317.810425	-1384.092773	34.999420	-337.267181
2	0.01000000	-1083.655762	1377.213257	-40.934643	-1086.235107	1401.351929	-453.393036	-1142.801758	1481.606079	-244.427902	-1031.263062	1351.931152	-246.648804	-1218.856323	1068.245605	-4.627900	-1053.673218	1064.822388	-515.984680	-1187.669495	800.667755	18.131543	-879.543549	870.617706	-450.127747	-1043.666626	964.096436	-141.105728	-1037.142090	955.987000	-379.663422	-1210.023071	1016.586853	-250.798065	-1233.047363	1304.589966	-252.159042	-998.924316	1204.791626	-260.813660	-979.614502	602.869202	-69.870399	-933.159119	498.616547	-124.085434	-911.679810	276.216309	-79.875916	-878.573242	71.265770	-146.257141	-910.336182	57.311348	-194.480423	-719.679688	56.722416	-165.132263	-1160.062134	535.066895	-457.978149	-1200.375366	455.404327	-383.351318	-1365.062256	286.237183	-430.188995	-1493.325684	133.552460	-362.630951	-1523.041382	161.938568	-317.860199	-1382.785034	35.228275	-337.492645
3	0.02000000	-1068.166138	1377.097046	-38.835014	-1071.346802	1403.040894	-451.080292	-1127.640381	1482.464844	-241.729935	-1015.533997	1352.717163	-244.468872	-1202.458862	1067.629639	-3.916218	-1040.559570	1065.856689	-512.444458	-1171.243408	800.050079	18.748241	-866.191803	870.762970	-449.749008	-1028.270508	966.426392	-139.799225	-1021.495178	955.990356	-378.031708	-1194.722168	1017.414307	-250.317764	-1217.911133	1305.351074	-250.423691	-983.279419	1205.673218	-259.265137	-962.124573	605.537781	-69.647415	-917.500000	500.011078	-124.232788	-899.516663	277.143402	-79.786758	-875.918945	70.984383	-146.807983	-909.179565	58.030937	-194.388718	-716.585999	51.203995	-167.093582	-1137.682373	533.901978	-457.857269	-1177.100952	453.911407	-384.010223	-1348.608765	291.894714	-430.034058	-1481.539795	143.153564	-362.831696	-1508.672363	172.904892	-317.357147	-1380.280518	35.866264	-337.827942
4	0.03000000	-1052.566895	1377.371094	-36.816395	-1056.535034	1405.068359	-448.851227	-1112.482422	1483.653809	-239.085724	-1000.003906	1353.844604	-242.403030	-1186.026489	1067.434448	-3.179381	-1028.039551	1067.161377	-508.943207	-1154.346802	799.871216	19.231002	-853.505493	871.088196	-449.536469	-1013.044250	969.062622	-138.435074	-1006.150146	956.363342	-376.331116	-1179.580078	1018.538635	-249.818329	-1202.826172	1306.454956	-248.694412	-967.874207	1206.879150	-257.813873	-945.546814	608.091858	-69.324905	-902.815552	501.325409	-124.375732	-888.242554	278.075409	-79.697365	-873.736938	70.965553	-147.364777	-908.346497	58.849163	-194.321518	-714.003906	46.744392	-168.697815	-1114.386108	533.018066	-457.887543	-1152.556152	452.679077	-384.787048	-1330.542725	297.909210	-429.682465	-1467.632568	153.041122	-362.645477	-1491.946045	183.902130	-316.273926	-1376.086304	37.041035	-338.338409
5	0.04000000	-1036.878662	1378.007568	-34.905708	-1041.832764	1407.367798	-446.732758	-1097.356445	1485.135742	-236.530777	-984.688232	1355.271362	-240.485245	-1169.570557	1067.628784	-2.407315	-1016.080383	1068.700317	-505.540680	-1136.983826	800.105591	19.580908	-841.457153	871.595032	-449.468887	-998.009583	971.901306	-137.040680	-991.138123	957.098633	-374.621246	-1164.625732	1019.925842	-249.260666	-1187.821289	1307.871704	-246.977310	-952.723877	1208.359863	-256.486603	-930.136230	610.359070	-68.923454	-889.296082	502.455475	-124.491089	-878.128296	278.897736	-79.649620	-871.952698	71.133522	-147.938507	-907.714539	59.687885	-194.322205	-711.876831	43.344379	-169.947678	-1090.432617	532.481018	-458.070831	-1126.933350	451.790710	-385.643921	-1310.866455	304.125458	-429.116272	-1451.548706	162.960144	-362.032745	-1472.933350	194.625931	-314.617371	-1369.666016	38.856541	-339.091156
6	0.05000000	-1021.125916	1378.973145	-33.123898	-1027.275024	1409.872559	-444.749847	-1082.286621	1486.876343	-234.095001	-969.584656	1356.955322	-238.739456	-1153.093872	1068.171021	-1.590526	-1004.637817	1070.435791	-502.291107	-1119.163147	800.720367	19.802587	-830.012421	872.277130	-449.527527	-983.177490	974.840820	-135.649536	-976.474060	958.188965	-372.966125	-1149.877075	1021.550232	-248.611664	-1172.920044	1309.572632	-245.274078	-937.829651	1210.068970	-255.302856	-916.090576	612.215515	-68.461441	-877.079712	503.330841	-124.551140	-869.374146	279.529724	-79.658531	-870.515503	71.411263	-148.521133	-907.211060	60.484432	-194.405807	-710.168030	40.916180	-170.872818	-1066.116699	532.359619	-458.394409	-1100.456909	451.336792	-386.539703	-1289.635010	310.380859	-428.325592	-1433.298218	172.634613	-360.970032	-1451.787231	204.769669	-312.423676	-1360.488037	41.367893	-340.141052
7	0.06000000	-1005.336426	1380.232666	-31.484747	-1012.895325	1412.521729	-442.924164	-1067.291504	1488.846558	-231.801208	-954.681519	1358.858398	-237.179367	-1136.592529	1069.014526	-0.720996	-993.658875	1072.333618	-499.241943	-1100.897949	801.679382	19.903231	-819.133087	873.122101	-449.697723	-968.549255	977.790649	-134.296555	-962.154785	959.627808	-371.425507	-1135.339722	1023.394165	-247.848083	-1158.138794	1311.530762	-243.582458	-923.182861	1211.968018	-254.273132	-903.519836	613.601929	-67.951408	-866.236267	503.919952	-124.530006	-862.072083	279.930908	-79.714218	-869.385498	71.731606	-149.090698	-906.798096	61.196964	-194.562683	-708.846680	39.315361	-171.518082	-1041.737061	532.722595	-458.833435	-1073.365112	451.409363	-387.435730	-1266.952515	316.518860	-427.309845	-1412.949097	181.781250	-359.454712	-1428.716797	214.041092	-309.753357	-1348.083252	44.558510	-341.514099
8	0.07000000	-989.540894	1381.752808	-29.994541	-998.721863	1415.265137	-441.271606	-1052.383667	1491.021118	-229.664764	-939.962402	1360.949219	-235.808899	-1120.056152	1070.112305	0.207217	-983.086121	1074.367188	-496.433319	-1082.206116	802.946899	19.891242	-808.780090	874.114014	-449.969955	-954.118896	980.678162	-133.012070	-948.158020	961.407776	-370.045837	-1121.008545	1025.445190	-246.958267	-1143.487183	1313.720215	-241.897614	-908.766968	1214.027344	-253.397781	-892.427551	614.526123	-67.400665	-856.760681	504.228638	-124.410309	-856.192139	280.099304	-79.790855	-868.525330	72.043823	-149.619354	-906.458679	61.804897	-194.766693	-707.878357	38.371372	-171.934235	-1017.560608	533.632324	-459.354645	-1045.891724	452.093323	-388.300110	-1242.961304	322.396820	-426.079926	-1390.612305	190.121826	-357.509888	-1403.956299	222.175903	-306.687134	-1332.100464	48.326126	-343.192230
9	0.08000000	-973.771423	1383.504883	-28.652548	-984.773010	1418.065552	-439.800232	-1037.570679	1493.377197	-227.693848	-925.408813	1363.201416	-234.623459	-1103.470825	1071.421387	1.197699	-972.861572	1076.520508	-493.898102	-1063.109863	804.489899	19.774792	-798.916473	875.234924	-450.340042	-939.875488	983.451904	-131.815964	-934.443726	963.518127	-368.852020	-1106.868408	1027.691406	-245.941879	-1128.966919	1316.113647	-240.214157	-894.559143	1216.225464	-252.667526	-882.711060	615.053650	-66.815071	-848.577271	504.292664	-124.188103	-851.592773	280.063782	-79.858376	-867.895813	72.315704	-150.081573	-906.186340	62.305744	-194.985199	-707.220581	37.912449	-172.171951	-993.790894	535.137146	-459.920288	-1018.251282	453.455170	-389.109680	-1217.827026	327.887726	-424.660034	-1366.423950	197.394135	-355.187195	-1377.735107	228.948441	-303.323120	-1312.347534	52.483170	-345.104279
10	0.09000000	-958.059448	1385.465576	-27.452065	-971.055115	1420.897949	-438.508911	-1022.856140	1495.890259	-225.890518	-911.001160	1365.592041	-233.611374	-1086.821045	1072.904297	2.251686	-962.931458	1078.787354	-491.662079	-1043.635681	806.279449	19.560658	-789.508911	876.465271	-450.808868	-925.805725	986.081238	-130.713928	-920.958008	965.940918	-367.843048	-1092.897217	1030.117065	-244.808151	-1114.573853	1318.679688	-238.528229	-880.531494	1218.545044	-252.064987	-874.179504	615.287354	-66.203514	-841.552917	504.166412	-123.874580	-848.051392	279.872894	-79.892593	-867.454895	72.532166	-150.460327	-905.978088	62.709873	-195.187912	-706.823425	37.783054	-172.278152	-970.547241	537.261963	-460.491394	-990.629761	455.531586	-389.849609	-1191.723511	332.876587	-423.088898	-1340.528564	203.362381	-352.565613	-1350.257568	234.179352	-299.773712	-1288.805908	56.773716	-347.126556
11	0.10000000	-942.433655	1387.614746	-26.381849	-957.560791	1423.745728	-437.387390	-1008.241333	1498.531006	-224.251740	-896.719482	1368.097290	-232.755600	-1070.092285	1074.529297	3.368321	-953.249268	1081.167480	-489.743866	-1023.813232	808.290344	19.253477	-780.528107	877.783997	-451.381378	-911.895691	988.552246	-129.696686	-907.639832	968.648315	-366.992218	-1079.069092	1032.697754	-243.573273	-1100.298096	1321.380127	-236.839066	-866.653137	1220.969482	-251.567093	-866.585754	615.344055	-65.580925	-835.516418	503.910492	-123.494209	-845.306091	279.583466	-79.881042	-867.159302	72.691528	-150.750397	-905.829834	63.034786	-195.353149	-706.631897	37.853870	-172.294083	-947.861206	540.001526	-461.030762	-963.180359	458.320435	-390.510986	-1164.818481	337.254578	-421.418945	-1313.066528	207.827530	-349.745514	-1321.690552	237.740433	-296.160645	-1261.620117	60.904228	-349.094940
12	0.11000000	-926.917603	1389.933350	-25.427732	-944.269531	1426.595947	-436.417450	-993.726257	1501.262573	-222.770645	-882.544312	1370.689819	-232.035568	-1053.274170	1076.268311	4.545115	-943.778259	1083.661011	-488.154633	-1003.674438	810.499237	18.855556	-771.947510	879.167267	-452.065338	-898.132019	990.862061	-128.742477	-894.428284	971.599976	-366.252258	-1065.357056	1035.398315	-242.257767	-1086.126465	1324.169067	-235.149780	-852.892151	1223.478271	-251.147537	-859.662720	615.331482	-64.968323	-830.279053	503.581238	-123.080055	-843.099121	279.250183	-79.823479	-866.967163	72.800842	-150.958466	-905.734924	63.300163	-195.470703	-706.590759	38.025562	-172.254410	-925.688477	543.316223	-461.505463	-936.025513	461.776978	-391.087830	-1137.263062	340.914948	-419.712860	-1284.166260	210.637314	-346.839111	-1292.161621	239.556259	-292.607513	-1231.062622	64.581505	-350.826385
